<svg xmlns="http://www.w3.org/2000/svg" viewBox="0 0 320 320"><defs><style>.cls-1{fill:#fff;}</style></defs><title>beautycave_1</title><g id="Layer_2" data-name="Layer 2"><g id="Layer_1-2" data-name="Layer 1"><circle cx="160" cy="160" r="160"/><path class="cls-1" d="M80.57,306c54.4-4.31,104.81-29.35,121.13-85.21,11.48-39.31,4.9-76.19-16-110.9C165.2,75.81,136.29,49.85,104.6,26.6c-3.11-2.28-6.18-4.62-9.48-7.09,2.13-1.37,3.49-.08,4.83.42,25.36,9.61,47.52,24.34,67.21,42.8,26.86,25.17,47.1,54.63,54.6,91.2,7.1,34.62,4.3,68.33-15.19,98.92-14.11,22.15-35.35,35.26-59.78,43.51A204.26,204.26,0,0,1,80.57,307.1Z"/><path class="cls-1" d="M83.81,160.72c2.31-3,4.51-6,6.85-8.87C103.23,136.37,106,118.94,101.08,100c-2.2-8.45-4.76-16.81-6.66-25.33-3.27-14.59,1.44-28.1,6.32-42.55,1.89,2.88,1.77,5.39,2.16,7.66,4.78,27.85,17.37,51,40.15,68.36a184.89,184.89,0,0,1,18.65,16.82c14.47,14.49,15.81,31.49,10.19,50-.39,1.29-1.66,2.4-.7,4.74,9.23-6.36,15.12-15.2,21.13-25.84.55,3.24,1,5,1.15,6.87a268.27,268.27,0,0,1-.53,56.07c-.45,4.22-1.68,5.36-6.06,4.34-9.33-2.17-17.45,1.88-25.36,6.19-6.26,3.41-12.34,7.19-18.78,10.2-9.63,4.5-14,2.2-16.82-8.11-.7-2.58-1.17-5.22-1.79-7.82-1.06-4.48-3.61-7.89-8-9.3-4.62-1.48-5.54-4.26-3.39-8.12,2.47-4.45,1.44-7-3.3-8.78-5-1.92-8.17-4.49-5.69-11.22s-.74-11.46-7.23-14.64C92,167.29,86.9,165.68,83.81,160.72Z"/></g></g></svg>